<?xml version="1.0" encoding="UTF-8" standalone="no"?>
<svg
   viewBox="0 0 1080 1080"
   version="1.1"
   id="svg26"
   sodipodi:docname="cam-hytale-ane-logo-revision.svg"
   width="1080"
   height="1080"
   inkscape:version="1.4 (86a8ad7, 2024-10-11)"
   xmlns:inkscape="http://www.inkscape.org/namespaces/inkscape"
   xmlns:sodipodi="http://sodipodi.sourceforge.net/DTD/sodipodi-0.dtd"
   xmlns="http://www.w3.org/2000/svg"
   xmlns:svg="http://www.w3.org/2000/svg">
  <defs
     id="defs26" />
  <sodipodi:namedview
     id="namedview26"
     pagecolor="#ffffff"
     bordercolor="#000000"
     borderopacity="0.25"
     inkscape:showpageshadow="2"
     inkscape:pageopacity="0.0"
     inkscape:pagecheckerboard="true"
     inkscape:deskcolor="#d1d1d1"
     inkscape:zoom="0.50024871"
     inkscape:cx="561.72059"
     inkscape:cy="518.74196"
     inkscape:window-width="1920"
     inkscape:window-height="1129"
     inkscape:window-x="-8"
     inkscape:window-y="-8"
     inkscape:window-maximized="1"
     inkscape:current-layer="svg26" />
  <g
     style="isolation:isolate"
     id="g26"
     transform="translate(36.795006,97.720002)">
    <g
       id="Layer_1"
       data-name="Layer 1">
      <rect
         x="61.169998"
         y="0.5"
         width="884.06"
         height="884.06"
         rx="70.910004"
         fill="#1e1236"
         id="rect1" />
      <path
         d="m 132.85,0.5 h 740.71 a 71.67,71.67 0 0 1 71.67,71.67 v 115.6 H 61.17 V 72.17 A 71.67,71.67 0 0 1 132.85,0.5 Z"
         fill="#463075"
         stroke="#463075"
         stroke-miterlimit="10"
         id="path1" />
      <g
         opacity="0.8"
         style="mix-blend-mode:multiply"
         id="g1">
        <path
           d="m 32.62,1.12 q -12.6,0 -20.3,-7.42 -7.56,-7.56 -7.56,-20.16 v -45.36 q 0,-12.46 7.56,-19.88 7.7,-7.42 20.3,-7.42 12.74,0 20.3,7.42 7.7,7.42 7.7,19.88 v 1.54 q 0,0.7 -0.56,1.26 -0.42,0.42 -1.12,0.42 l -16.38,0.7 q -1.68,0 -1.68,-1.54 v -3.64 q 0,-4.06 -2.24,-6.58 -2.24,-2.52 -6.02,-2.52 -3.64,0 -5.88,2.52 -2.24,2.52 -2.24,6.58 v 48.3 q 0,4.06 2.24,6.58 2.24,2.38 5.88,2.38 3.78,0 6.02,-2.38 2.24,-2.52 2.24,-6.58 v -3.78 q 0,-0.7 0.42,-1.12 0.56,-0.56 1.26,-0.56 l 16.38,0.7 q 0.7,0 1.12,0.56 0.56,0.42 0.56,1.12 v 1.4 q 0,12.6 -7.7,20.16 -7.7,7.42 -20.3,7.42 z m 63.700098,-74.2 q 11.900002,0 19.320002,6.44 7.42,6.44 7.42,16.94 v 48.02 q 0,0.7 -0.56,1.26 -0.42,0.42 -1.12,0.42 h -16.38 q -0.7,0 -1.26,-0.42 -0.42,-0.56 -0.42,-1.26 v -3.08 q 0,-0.42 -0.28,-0.56 -0.28,-0.14 -0.56,0.28 -4.620002,5.88 -14.280002,6.16 -8.12,0 -14.14,-4.48 -5.88,-4.48 -5.88,-17.08 0,-13.02 7.14,-17.92 7.28,-4.9 20.86,-4.9 h 6.440002 q 0.7,0 0.7,-0.7 v -3.5 q 0,-3.78 -2.1,-6.16 -1.960002,-2.52 -5.040002,-2.52 -2.38,0 -4.06,1.54 -1.54,1.4 -1.96,4.06 -0.14,1.68 -1.82,1.68 l -16.8,-0.14 q -1.68,0 -1.68,-1.68 0.7,-10.22 7.98,-16.24 7.28,-6.16 18.48,-6.16 z m -1.4,58.94 q 3.22,0 5.740002,-2.1 2.66,-2.24 2.66,-5.88 v -6.58 q 0,-0.7 -0.7,-0.7 h -5.740002 q -3.78,0 -6.16,2.24 -2.24,2.1 -2.24,5.88 0,3.5 1.68,5.32 1.82,1.82 4.76,1.82 z M 198.09998,-73.08 q 9.52,0 14.28,6.44 4.76,6.44 4.76,18.06 v 46.9 q 0,0.7 -0.56,1.26 -0.42,0.42 -1.12,0.42 h -16.38 q -0.7,0 -1.26,-0.42 -0.42,-0.56 -0.42,-1.26 v -45.64 q 0,-4.2 -1.68,-6.44 -1.68,-2.38 -4.48,-2.38 -3.08,0 -4.9,2.38 -1.68,2.24 -1.68,6.44 v 45.64 q 0,0.7 -0.56,1.26 -0.42,0.42 -1.12,0.42 h -16.24 q -0.7,0 -1.26,-0.42 -0.42,-0.56 -0.42,-1.26 v -45.64 q 0,-4.2 -1.68,-6.44 -1.68,-2.38 -4.48,-2.38 -3.08,0 -4.9,2.38 -1.68,2.24 -1.68,6.44 v 45.64 q 0,0.7 -0.56,1.26 -0.42,0.42 -1.12,0.42 h -16.38 q -0.7,0 -1.26,-0.42 -0.42,-0.56 -0.42,-1.26 v -68.6 q 0,-0.7 0.42,-1.12 0.56,-0.56 1.26,-0.56 h 16.38 q 0.7,0 1.12,0.56 0.56,0.42 0.56,1.12 v 1.82 q 0,0.42 0.28,0.56 0.28,0.14 0.56,-0.14 2.8,-2.8 6.16,-3.92 3.36,-1.12 6.44,-1.12 10.92,0 15.68,8.68 l 0.28,0.14 q 0.42,0 0.98,-0.84 2.94,-4.48 7,-6.16 4.2,-1.82 8.4,-1.82 z m 93.1,-23.24 q 0,-0.7 0.42,-1.12 0.56,-0.56 1.26,-0.56 h 16.38 q 0.7,0 1.12,0.56 0.56,0.42 0.56,1.12 v 94.64 q 0,0.7 -0.56,1.26 -0.42,0.42 -1.12,0.42 h -16.38 q -0.7,0 -1.26,-0.42 -0.42,-0.56 -0.42,-1.26 V -39.9 q 0,-0.7 -0.7,-0.7 h -14 q -0.7,0 -0.7,0.7 v 38.22 q 0,0.7 -0.56,1.26 -0.42,0.42 -1.12,0.42 h -16.38 q -0.7,0 -1.26,-0.42 -0.42,-0.56 -0.42,-1.26 v -94.64 q 0,-0.7 0.42,-1.12 0.56,-0.56 1.26,-0.56 h 16.38 q 0.7,0 1.12,0.56 0.56,0.42 0.56,1.12 v 38.08 q 0,0.7 0.7,0.7 h 14 q 0.7,0 0.7,-0.7 z m 31.21993,124.18 q -0.28,0 -0.56,-0.56 -0.28,-0.42 -0.28,-1.12 V 13.3 q 0,-1.68 1.26,-1.68 7.28,-0.14 10.36,-2.38 3.08,-2.1 3.5,-8.82 l -0.14,-0.84 -17.64,-69.86 v -0.56 q 0,-1.26 1.54,-1.26 h 17.64 q 1.68,0 1.82,1.54 l 6.44,41.58 q 0.14,0.56 0.42,0.56 0.28,0 0.42,-0.56 l 6.16,-41.58 q 0.14,-1.54 1.82,-1.54 l 17.64,0.28 q 1.96,0 1.54,1.82 l -18.48,72.66 q -2.8,10.22 -6.02,15.26 -3.08,5.18 -9.24,7.56 -6.02,2.38 -17.5,2.38 z m 91.98004,-87.64 q 0,0.7 -0.56,1.26 -0.42,0.42 -1.12,0.42 h -7.84 q -0.7,0 -0.7,0.7 v 33.32 q 0,4.06 1.54,5.6 1.54,1.54 4.62,1.4 h 0.98 q 0.7,0 1.12,0.56 0.56,0.42 0.56,1.12 v 13.72 q 0,0.7 -0.56,1.26 -0.42,0.42 -1.12,0.42 h -5.6 q -10.22,0 -15.4,-3.36 -5.18,-3.5 -5.18,-13.16 V -57.4 q 0,-0.7 -0.7,-0.7 h -4.62 q -0.7,0 -1.26,-0.42 -0.42,-0.56 -0.42,-1.26 v -10.5 q 0,-0.7 0.42,-1.12 0.56,-0.56 1.26,-0.56 h 4.62 q 0.7,0 0.7,-0.7 V -88.2 q 0,-0.7 0.42,-1.12 0.56,-0.56 1.26,-0.56 h 15.68 q 0.7,0 1.12,0.56 0.56,0.42 0.56,1.12 v 15.54 q 0,0.7 0.7,0.7 h 7.84 q 0.7,0 1.12,0.56 0.56,0.42 0.56,1.12 z M 448.42,-73.08 q 11.9,0 19.32,6.44 7.42,6.44 7.42,16.94 v 48.02 q 0,0.7 -0.56,1.26 Q 474.18,0 473.48,0 H 457.1 q -0.7,0 -1.26,-0.42 -0.42,-0.56 -0.42,-1.26 v -3.08 q 0,-0.42 -0.28,-0.56 -0.28,-0.14 -0.56,0.28 -4.62,5.88 -14.28,6.16 -8.12,0 -14.14,-4.48 -5.88,-4.48 -5.88,-17.08 0,-13.02 7.14,-17.92 7.28,-4.9 20.86,-4.9 h 6.44 q 0.7,0 0.7,-0.7 v -3.5 q 0,-3.78 -2.1,-6.16 -1.96,-2.52 -5.04,-2.52 -2.38,0 -4.06,1.54 -1.54,1.4 -1.96,4.06 -0.14,1.68 -1.82,1.68 L 423.64,-49 q -1.68,0 -1.68,-1.68 0.7,-10.22 7.98,-16.24 7.28,-6.16 18.48,-6.16 z m -1.4,58.94 q 3.22,0 5.74,-2.1 2.66,-2.24 2.66,-5.88 v -6.58 q 0,-0.7 -0.7,-0.7 h -5.74 q -3.78,0 -6.16,2.24 -2.24,2.1 -2.24,5.88 0,3.5 1.68,5.32 1.82,1.82 4.76,1.82 z M 485.93988,0 q -0.7,0 -1.26,-0.42 -0.42,-0.56 -0.42,-1.26 v -94.64 q 0,-0.7 0.42,-1.12 0.56,-0.56 1.26,-0.56 h 16.38 q 0.7,0 1.12,0.56 0.56,0.42 0.56,1.12 v 94.64 q 0,0.7 -0.56,1.26 -0.42,0.42 -1.12,0.42 z m 80.07995,-31.5 q 0,0.7 -0.56,1.26 -0.42,0.42 -1.12,0.42 h -30.8 q -0.7,0 -0.7,0.7 v 5.18 q 0,3.5 1.82,5.88 1.96,2.24 4.9,2.24 2.66,0 4.34,-1.68 1.68,-1.82 2.24,-4.48 0.42,-1.4 1.82,-1.4 l 16.1,0.84 q 0.7,0 1.12,0.56 0.56,0.42 0.42,1.26 -0.98,10.78 -7.56,16.38 -6.44,5.46 -18.48,5.46 -12.46,0 -19.46,-6.16 -7,-6.3 -7,-17.36 v -27.16 q 0,-10.64 7,-17.08 7.14,-6.44 19.46,-6.44 12.32,0 19.32,6.44 7.14,6.44 7.14,17.08 z m -26.46,-24.64 q -2.94,0 -4.9,2.24 -1.82,2.24 -1.82,5.74 v 5.46 q 0,0.7 0.7,0.7 h 12.04 q 0.7,0 0.7,-0.7 v -5.46 q 0,-3.5 -1.96,-5.74 -1.82,-2.24 -4.76,-2.24 z M 645.12005,0 q -1.68,0 -1.82,-1.54 l -2.24,-13.44 q 0,-0.7 -0.84,-0.7 h -17.78 q -0.84,0 -0.84,0.7 l -2.24,13.44 q -0.14,1.54 -1.82,1.54 h -16.38 q -1.82,0 -1.4,-1.82 l 20.58,-94.64 q 0.28,-1.54 1.82,-1.54 h 18.9 q 1.54,0 1.82,1.54 l 20.44,94.64 0.14,0.56 q 0,1.26 -1.54,1.26 z m -20.72,-31.64 q 0,0.7 0.56,0.7 h 12.6 q 0.7,0 0.56,-0.7 l -6.58,-38.22 q -0.14,-0.42 -0.42,-0.42 -0.28,0 -0.42,0.42 z m 87.08004,-64.68 q 0,-0.7 0.42,-1.12 0.56,-0.56 1.26,-0.56 h 16.24 q 0.7,0 1.12,0.56 0.56,0.42 0.56,1.12 v 94.64 q 0,0.7 -0.56,1.26 -0.42,0.42 -1.12,0.42 h -18.48 q -1.4,0 -1.82,-1.4 l -17.36,-54.18 q -0.14,-0.42 -0.56,-0.28 -0.28,0 -0.28,0.42 l 0.14,53.76 q 0,0.7 -0.56,1.26 -0.42,0.42 -1.12,0.42 h -16.24 q -0.7,0 -1.26,-0.42 -0.42,-0.56 -0.42,-1.26 v -94.64 q 0,-0.7 0.42,-1.12 0.56,-0.56 1.26,-0.56 h 18.34 q 1.4,0 1.82,1.4 l 17.5,54.18 q 0.14,0.42 0.42,0.42 0.42,-0.14 0.42,-0.56 z m 83.30002,13.58 q 0,0.7 -0.56,1.26 -0.42,0.42 -1.12,0.42 h -29.26 q -0.7,0 -0.7,0.7 v 22.12 q 0,0.7 0.7,0.7 h 16.8 q 0.7,0 1.12,0.56 0.56,0.42 0.56,1.12 v 13.58 q 0,0.7 -0.56,1.26 -0.42,0.42 -1.12,0.42 h -16.8 q -0.7,0 -0.7,0.7 v 22.26 q 0,0.7 0.7,0.7 h 29.26 q 0.7,0 1.12,0.56 0.56,0.42 0.56,1.12 v 13.58 q 0,0.7 -0.56,1.26 -0.42,0.42 -1.12,0.42 h -48.02 q -0.7,0 -1.26,-0.42 -0.42,-0.56 -0.42,-1.26 v -94.64 q 0,-0.7 0.42,-1.12 0.56,-0.56 1.26,-0.56 h 48.02 q 0.7,0 1.12,0.56 0.56,0.42 0.56,1.12 z"
           id="text1"
           style="font-weight:700;font-size:140px;font-family:BarlowCondensed-Bold, 'Barlow Condensed';opacity:0.64"
           transform="translate(110.93,151.98)"
           aria-label="Cam Hytale ANE" />
      </g>
      <path
         d="m 32.62,1.12 q -12.6,0 -20.3,-7.42 -7.56,-7.56 -7.56,-20.16 v -45.36 q 0,-12.46 7.56,-19.88 7.7,-7.42 20.3,-7.42 12.74,0 20.3,7.42 7.7,7.42 7.7,19.88 v 1.54 q 0,0.7 -0.56,1.26 -0.42,0.42 -1.12,0.42 l -16.38,0.7 q -1.68,0 -1.68,-1.54 v -3.64 q 0,-4.06 -2.24,-6.58 -2.24,-2.52 -6.02,-2.52 -3.64,0 -5.88,2.52 -2.24,2.52 -2.24,6.58 v 48.3 q 0,4.06 2.24,6.58 2.24,2.38 5.88,2.38 3.78,0 6.02,-2.38 2.24,-2.52 2.24,-6.58 v -3.78 q 0,-0.7 0.42,-1.12 0.56,-0.56 1.26,-0.56 l 16.38,0.7 q 0.7,0 1.12,0.56 0.56,0.42 0.56,1.12 v 1.4 q 0,12.6 -7.7,20.16 -7.7,7.42 -20.3,7.42 z m 63.700098,-74.2 q 11.900002,0 19.320002,6.44 7.42,6.44 7.42,16.94 v 48.02 q 0,0.7 -0.56,1.26 -0.42,0.42 -1.12,0.42 h -16.38 q -0.7,0 -1.26,-0.42 -0.42,-0.56 -0.42,-1.26 v -3.08 q 0,-0.42 -0.28,-0.56 -0.28,-0.14 -0.56,0.28 -4.620002,5.88 -14.280002,6.16 -8.12,0 -14.14,-4.48 -5.88,-4.48 -5.88,-17.08 0,-13.02 7.14,-17.92 7.28,-4.9 20.86,-4.9 h 6.440002 q 0.7,0 0.7,-0.7 v -3.5 q 0,-3.78 -2.1,-6.16 -1.960002,-2.52 -5.040002,-2.52 -2.38,0 -4.06,1.54 -1.54,1.4 -1.96,4.06 -0.14,1.68 -1.82,1.68 l -16.8,-0.14 q -1.68,0 -1.68,-1.68 0.7,-10.22 7.98,-16.24 7.28,-6.16 18.48,-6.16 z m -1.4,58.94 q 3.22,0 5.740002,-2.1 2.66,-2.24 2.66,-5.88 v -6.58 q 0,-0.7 -0.7,-0.7 h -5.740002 q -3.78,0 -6.16,2.24 -2.24,2.1 -2.24,5.88 0,3.5 1.68,5.32 1.82,1.82 4.76,1.82 z M 198.09998,-73.08 q 9.52,0 14.28,6.44 4.76,6.44 4.76,18.06 v 46.9 q 0,0.7 -0.56,1.26 -0.42,0.42 -1.12,0.42 h -16.38 q -0.7,0 -1.26,-0.42 -0.42,-0.56 -0.42,-1.26 v -45.64 q 0,-4.2 -1.68,-6.44 -1.68,-2.38 -4.48,-2.38 -3.08,0 -4.9,2.38 -1.68,2.24 -1.68,6.44 v 45.64 q 0,0.7 -0.56,1.26 -0.42,0.42 -1.12,0.42 h -16.24 q -0.7,0 -1.26,-0.42 -0.42,-0.56 -0.42,-1.26 v -45.64 q 0,-4.2 -1.68,-6.44 -1.68,-2.38 -4.48,-2.38 -3.08,0 -4.9,2.38 -1.68,2.24 -1.68,6.44 v 45.64 q 0,0.7 -0.56,1.26 -0.42,0.42 -1.12,0.42 h -16.38 q -0.7,0 -1.26,-0.42 -0.42,-0.56 -0.42,-1.26 v -68.6 q 0,-0.7 0.42,-1.12 0.56,-0.56 1.26,-0.56 h 16.38 q 0.7,0 1.12,0.56 0.56,0.42 0.56,1.12 v 1.82 q 0,0.42 0.28,0.56 0.28,0.14 0.56,-0.14 2.8,-2.8 6.16,-3.92 3.36,-1.12 6.44,-1.12 10.92,0 15.68,8.68 l 0.28,0.14 q 0.42,0 0.98,-0.84 2.94,-4.48 7,-6.16 4.2,-1.82 8.4,-1.82 z m 93.1,-23.24 q 0,-0.7 0.42,-1.12 0.56,-0.56 1.26,-0.56 h 16.38 q 0.7,0 1.12,0.56 0.56,0.42 0.56,1.12 v 94.64 q 0,0.7 -0.56,1.26 -0.42,0.42 -1.12,0.42 h -16.38 q -0.7,0 -1.26,-0.42 -0.42,-0.56 -0.42,-1.26 V -39.9 q 0,-0.7 -0.7,-0.7 h -14 q -0.7,0 -0.7,0.7 v 38.22 q 0,0.7 -0.56,1.26 -0.42,0.42 -1.12,0.42 h -16.38 q -0.7,0 -1.26,-0.42 -0.42,-0.56 -0.42,-1.26 v -94.64 q 0,-0.7 0.42,-1.12 0.56,-0.56 1.26,-0.56 h 16.38 q 0.7,0 1.12,0.56 0.56,0.42 0.56,1.12 v 38.08 q 0,0.7 0.7,0.7 h 14 q 0.7,0 0.7,-0.7 z m 31.21993,124.18 q -0.28,0 -0.56,-0.56 -0.28,-0.42 -0.28,-1.12 V 13.3 q 0,-1.68 1.26,-1.68 7.28,-0.14 10.36,-2.38 3.08,-2.1 3.5,-8.82 l -0.14,-0.84 -17.64,-69.86 v -0.56 q 0,-1.26 1.54,-1.26 h 17.64 q 1.68,0 1.82,1.54 l 6.44,41.58 q 0.14,0.56 0.42,0.56 0.28,0 0.42,-0.56 l 6.16,-41.58 q 0.14,-1.54 1.82,-1.54 l 17.64,0.28 q 1.96,0 1.54,1.82 l -18.48,72.66 q -2.8,10.22 -6.02,15.26 -3.08,5.18 -9.24,7.56 -6.02,2.38 -17.5,2.38 z m 91.98004,-87.64 q 0,0.7 -0.56,1.26 -0.42,0.42 -1.12,0.42 h -7.84 q -0.7,0 -0.7,0.7 v 33.32 q 0,4.06 1.54,5.6 1.54,1.54 4.62,1.4 h 0.98 q 0.7,0 1.12,0.56 0.56,0.42 0.56,1.12 v 13.72 q 0,0.7 -0.56,1.26 -0.42,0.42 -1.12,0.42 h -5.6 q -10.22,0 -15.4,-3.36 -5.18,-3.5 -5.18,-13.16 V -57.4 q 0,-0.7 -0.7,-0.7 h -4.62 q -0.7,0 -1.26,-0.42 -0.42,-0.56 -0.42,-1.26 v -10.5 q 0,-0.7 0.42,-1.12 0.56,-0.56 1.26,-0.56 h 4.62 q 0.7,0 0.7,-0.7 V -88.2 q 0,-0.7 0.42,-1.12 0.56,-0.56 1.26,-0.56 h 15.68 q 0.7,0 1.12,0.56 0.56,0.42 0.56,1.12 v 15.54 q 0,0.7 0.7,0.7 h 7.84 q 0.7,0 1.12,0.56 0.56,0.42 0.56,1.12 z M 448.42,-73.08 q 11.9,0 19.32,6.44 7.42,6.44 7.42,16.94 v 48.02 q 0,0.7 -0.56,1.26 Q 474.18,0 473.48,0 H 457.1 q -0.7,0 -1.26,-0.42 -0.42,-0.56 -0.42,-1.26 v -3.08 q 0,-0.42 -0.28,-0.56 -0.28,-0.14 -0.56,0.28 -4.62,5.88 -14.28,6.16 -8.12,0 -14.14,-4.48 -5.88,-4.48 -5.88,-17.08 0,-13.02 7.14,-17.92 7.28,-4.9 20.86,-4.9 h 6.44 q 0.7,0 0.7,-0.7 v -3.5 q 0,-3.78 -2.1,-6.16 -1.96,-2.52 -5.04,-2.52 -2.38,0 -4.06,1.54 -1.54,1.4 -1.96,4.06 -0.14,1.68 -1.82,1.68 L 423.64,-49 q -1.68,0 -1.68,-1.68 0.7,-10.22 7.98,-16.24 7.28,-6.16 18.48,-6.16 z m -1.4,58.94 q 3.22,0 5.74,-2.1 2.66,-2.24 2.66,-5.88 v -6.58 q 0,-0.7 -0.7,-0.7 h -5.74 q -3.78,0 -6.16,2.24 -2.24,2.1 -2.24,5.88 0,3.5 1.68,5.32 1.82,1.82 4.76,1.82 z M 485.93988,0 q -0.7,0 -1.26,-0.42 -0.42,-0.56 -0.42,-1.26 v -94.64 q 0,-0.7 0.42,-1.12 0.56,-0.56 1.26,-0.56 h 16.38 q 0.7,0 1.12,0.56 0.56,0.42 0.56,1.12 v 94.64 q 0,0.7 -0.56,1.26 -0.42,0.42 -1.12,0.42 z m 80.07995,-31.5 q 0,0.7 -0.56,1.26 -0.42,0.42 -1.12,0.42 h -30.8 q -0.7,0 -0.7,0.7 v 5.18 q 0,3.5 1.82,5.88 1.96,2.24 4.9,2.24 2.66,0 4.34,-1.68 1.68,-1.82 2.24,-4.48 0.42,-1.4 1.82,-1.4 l 16.1,0.84 q 0.7,0 1.12,0.56 0.56,0.42 0.42,1.26 -0.98,10.78 -7.56,16.38 -6.44,5.46 -18.48,5.46 -12.46,0 -19.46,-6.16 -7,-6.3 -7,-17.36 v -27.16 q 0,-10.64 7,-17.08 7.14,-6.44 19.46,-6.44 12.32,0 19.32,6.44 7.14,6.44 7.14,17.08 z m -26.46,-24.64 q -2.94,0 -4.9,2.24 -1.82,2.24 -1.82,5.74 v 5.46 q 0,0.7 0.7,0.7 h 12.04 q 0.7,0 0.7,-0.7 v -5.46 q 0,-3.5 -1.96,-5.74 -1.82,-2.24 -4.76,-2.24 z M 645.12005,0 q -1.68,0 -1.82,-1.54 l -2.24,-13.44 q 0,-0.7 -0.84,-0.7 h -17.78 q -0.84,0 -0.84,0.7 l -2.24,13.44 q -0.14,1.54 -1.82,1.54 h -16.38 q -1.82,0 -1.4,-1.82 l 20.58,-94.64 q 0.28,-1.54 1.82,-1.54 h 18.9 q 1.54,0 1.82,1.54 l 20.44,94.64 0.14,0.56 q 0,1.26 -1.54,1.26 z m -20.72,-31.64 q 0,0.7 0.56,0.7 h 12.6 q 0.7,0 0.56,-0.7 l -6.58,-38.22 q -0.14,-0.42 -0.42,-0.42 -0.28,0 -0.42,0.42 z m 87.08004,-64.68 q 0,-0.7 0.42,-1.12 0.56,-0.56 1.26,-0.56 h 16.24 q 0.7,0 1.12,0.56 0.56,0.42 0.56,1.12 v 94.64 q 0,0.7 -0.56,1.26 -0.42,0.42 -1.12,0.42 h -18.48 q -1.4,0 -1.82,-1.4 l -17.36,-54.18 q -0.14,-0.42 -0.56,-0.28 -0.28,0 -0.28,0.42 l 0.14,53.76 q 0,0.7 -0.56,1.26 -0.42,0.42 -1.12,0.42 h -16.24 q -0.7,0 -1.26,-0.42 -0.42,-0.56 -0.42,-1.26 v -94.64 q 0,-0.7 0.42,-1.12 0.56,-0.56 1.26,-0.56 h 18.34 q 1.4,0 1.82,1.4 l 17.5,54.18 q 0.14,0.42 0.42,0.42 0.42,-0.14 0.42,-0.56 z m 83.30002,13.58 q 0,0.7 -0.56,1.26 -0.42,0.42 -1.12,0.42 h -29.26 q -0.7,0 -0.7,0.7 v 22.12 q 0,0.7 0.7,0.7 h 16.8 q 0.7,0 1.12,0.56 0.56,0.42 0.56,1.12 v 13.58 q 0,0.7 -0.56,1.26 -0.42,0.42 -1.12,0.42 h -16.8 q -0.7,0 -0.7,0.7 v 22.26 q 0,0.7 0.7,0.7 h 29.26 q 0.7,0 1.12,0.56 0.56,0.42 0.56,1.12 v 13.58 q 0,0.7 -0.56,1.26 -0.42,0.42 -1.12,0.42 h -48.02 q -0.7,0 -1.26,-0.42 -0.42,-0.56 -0.42,-1.26 v -94.64 q 0,-0.7 0.42,-1.12 0.56,-0.56 1.26,-0.56 h 48.02 q 0.7,0 1.12,0.56 0.56,0.42 0.56,1.12 z"
         id="text2"
         style="font-weight:700;font-size:140px;font-family:BarlowCondensed-Bold, 'Barlow Condensed';fill:#d6bfff"
         transform="translate(103.93,145.98)"
         aria-label="Cam Hytale ANE" />
      <circle
         cx="945.23999"
         cy="306.03"
         r="53.669998"
         fill="#755bb3"
         stroke="#423365"
         stroke-miterlimit="10"
         stroke-width="15"
         id="circle2" />
      <circle
         cx="945.23999"
         cy="306.03"
         r="34.439999"
         fill="#634e98"
         id="circle3" />
      <rect
         x="114.84"
         y="422.64001"
         width="776.71997"
         height="413.81"
         rx="57.889999"
         fill="#403363"
         id="rect3" />
      <g
         opacity="0.6"
         id="g14">
        <path
           d="M 928.36,865"
           transform="translate(-36.8,-97.47)"
           fill="none"
           stroke="#d4b4ff"
           stroke-miterlimit="10"
           stroke-width="4"
           id="path3" />
        <path
           d="M 151.64,865"
           transform="translate(-36.8,-97.47)"
           fill="none"
           stroke="#d4b4ff"
           stroke-miterlimit="10"
           stroke-width="4"
           id="path4" />
        <line
           x1="114.84"
           y1="698.52002"
           x2="891.56"
           y2="698.52002"
           fill="none"
           stroke="#d4b4ff"
           stroke-miterlimit="10"
           stroke-width="4"
           id="line4" />
        <path
           d="M 928.36,727"
           transform="translate(-36.8,-97.47)"
           fill="none"
           stroke="#d4b4ff"
           stroke-miterlimit="10"
           stroke-width="4"
           id="path5" />
        <path
           d="M 151.64,727"
           transform="translate(-36.8,-97.47)"
           fill="none"
           stroke="#d4b4ff"
           stroke-miterlimit="10"
           stroke-width="4"
           id="path6" />
        <line
           x1="114.84"
           y1="560.58002"
           x2="891.56"
           y2="560.58002"
           fill="none"
           stroke="#d4b4ff"
           stroke-miterlimit="10"
           stroke-width="4"
           id="line6" />
        <path
           d="M 928.36,589.08"
           transform="translate(-36.8,-97.47)"
           fill="none"
           stroke="#d4b4ff"
           stroke-miterlimit="10"
           stroke-width="4"
           id="path7" />
        <path
           d="M 151.64,589.08"
           transform="translate(-36.8,-97.47)"
           fill="none"
           stroke="#d4b4ff"
           stroke-miterlimit="10"
           stroke-width="4"
           id="path8" />
        <path
           d="M 798.91,933.92"
           transform="translate(-36.8,-97.47)"
           fill="none"
           stroke="#d4b4ff"
           stroke-miterlimit="10"
           stroke-width="4"
           id="path9" />
        <path
           d="M 798.91,520.11"
           transform="translate(-36.8,-97.47)"
           fill="none"
           stroke="#d4b4ff"
           stroke-miterlimit="10"
           stroke-width="4"
           id="path10" />
        <line
           x1="632.65997"
           y1="422.64001"
           x2="632.65997"
           y2="836.46002"
           fill="none"
           stroke="#d4b4ff"
           stroke-miterlimit="10"
           stroke-width="4"
           id="line10" />
        <path
           d="M 540,933.92"
           transform="translate(-36.8,-97.47)"
           fill="none"
           stroke="#d4b4ff"
           stroke-miterlimit="10"
           stroke-width="4"
           id="path11" />
        <path
           d="M 540,520.11"
           transform="translate(-36.8,-97.47)"
           fill="none"
           stroke="#d4b4ff"
           stroke-miterlimit="10"
           stroke-width="4"
           id="path12" />
        <line
           x1="373.75"
           y1="422.64001"
           x2="373.75"
           y2="836.46002"
           fill="none"
           stroke="#d4b4ff"
           stroke-miterlimit="10"
           stroke-width="4"
           id="line12" />
        <path
           d="M 281.09,933.92"
           transform="translate(-36.8,-97.47)"
           fill="none"
           stroke="#d4b4ff"
           stroke-miterlimit="10"
           stroke-width="4"
           id="path13" />
        <path
           d="M 281.09,520.11"
           transform="translate(-36.8,-97.47)"
           fill="none"
           stroke="#d4b4ff"
           stroke-miterlimit="10"
           stroke-width="4"
           id="path14" />
      </g>
      <path
         d="M 209.53,520.11 H 151.64 V 578 a 57.89,57.89 0 0 1 57.89,-57.89 z"
         transform="translate(-36.8,-97.47)"
         fill="#1e1236"
         id="path15" />
      <path
         d="m 151.64,876 v 57.89 h 57.89 A 57.89,57.89 0 0 1 151.64,876 Z"
         transform="translate(-36.8,-97.47)"
         fill="#1e1236"
         id="path16" />
      <path
         d="m 870.47,933.92 h 57.89 V 876 a 57.89,57.89 0 0 1 -57.89,57.92 z"
         transform="translate(-36.8,-97.47)"
         fill="#1e1236"
         id="path17" />
      <path
         d="M 870.47,520.11 A 57.89,57.89 0 0 1 928.36,578 v -57.89 z"
         transform="translate(-36.8,-97.47)"
         fill="#1e1236"
         id="path18" />
      <polyline
         points="108.1 509.86 367.01 702.22 552.17 724.91 755.37 537.56 895.93 624.98"
         fill="none"
         stroke="#c98615"
         stroke-miterlimit="10"
         stroke-width="15"
         id="polyline18" />
      <circle
         cx="61.169998"
         cy="306.03"
         r="53.669998"
         fill="#c98615"
         stroke="#5a3d0b"
         stroke-miterlimit="10"
         stroke-width="15"
         id="circle18" />
      <circle
         cx="61.169998"
         cy="306.03"
         r="34.439999"
         fill="#a16c11"
         id="circle19" />
      <circle
         cx="369.88"
         cy="700.56"
         r="24.360001"
         fill="#ff841f"
         stroke="#8a3600"
         stroke-miterlimit="10"
         stroke-width="6"
         id="circle20" />
      <circle
         cx="555.82001"
         cy="721.21002"
         r="24.360001"
         fill="#ff841f"
         stroke="#8a3600"
         stroke-miterlimit="10"
         stroke-width="6"
         id="circle21" />
      <circle
         cx="757.46997"
         cy="538.08002"
         r="24.360001"
         fill="#ff841f"
         stroke="#8a3600"
         stroke-miterlimit="10"
         stroke-width="6"
         id="circle22" />
      <rect
         x="160.73"
         y="252.37"
         width="107.32"
         height="107.32"
         rx="30.190001"
         fill="#755bb3"
         stroke="#423365"
         stroke-miterlimit="10"
         stroke-width="10"
         id="rect22" />
      <path
         d="m 216.74,407.44 10,-10.05 16.44,16.16 36.47,-36.33 10.09,10 -46.56,46.31 z"
         transform="translate(-36.8,-97.47)"
         fill="#1e1236"
         id="path22" />
      <rect
         x="338.03"
         y="252.37"
         width="495.64001"
         height="107.32"
         rx="30.190001"
         fill="#755bb3"
         stroke="#423365"
         stroke-miterlimit="10"
         stroke-width="10"
         id="rect23" />
      <rect
         x="80.459999"
         y="462.63"
         width="20.9"
         height="192.77"
         fill="#1e1236"
         id="rect24" />
      <rect
         x="93.940002"
         y="480.53"
         width="20.9"
         height="192.77"
         fill="#1e1236"
         id="rect25" />
      <rect
         x="891.56"
         y="513.72998"
         width="20.9"
         height="192.77"
         fill="#1e1236"
         id="rect26" />
    </g>
  </g>
</svg>
