<?xml version="1.0" encoding="UTF-8" standalone="no"?>
<svg
   viewBox="0 0 611.99506 611.99506"
   version="1.1"
   id="svg49"
   sodipodi:docname="cam-hytale-ane-logo-v2-micro.svg"
   width="611.99506"
   height="611.99506"
   inkscape:version="1.4 (86a8ad7, 2024-10-11)"
   inkscape:export-filename="cam-hytale-ane-logo-v2-micro_32.png"
   inkscape:export-xdpi="5.0196486"
   inkscape:export-ydpi="5.0196486"
   xmlns:inkscape="http://www.inkscape.org/namespaces/inkscape"
   xmlns:sodipodi="http://sodipodi.sourceforge.net/DTD/sodipodi-0.dtd"
   xmlns="http://www.w3.org/2000/svg"
   xmlns:svg="http://www.w3.org/2000/svg">
  <defs
     id="defs49" />
  <sodipodi:namedview
     id="namedview49"
     pagecolor="#ffffff"
     bordercolor="#000000"
     borderopacity="0.25"
     inkscape:showpageshadow="2"
     inkscape:pageopacity="0.0"
     inkscape:pagecheckerboard="true"
     inkscape:deskcolor="#d1d1d1"
     inkscape:zoom="0.67013932"
     inkscape:cx="243.23301"
     inkscape:cy="358.8806"
     inkscape:window-width="1920"
     inkscape:window-height="1129"
     inkscape:window-x="-8"
     inkscape:window-y="-8"
     inkscape:window-maximized="1"
     inkscape:current-layer="g49" />
  <g
     style="isolation:isolate"
     id="g49"
     transform="translate(-224.82246,-160.91248)">
    <rect
       x="297.48999"
       y="205.97375"
       width="466.66"
       height="521.87244"
       rx="70.910004"
       fill="#1e1236"
       id="rect1"
       style="stroke-width:1"
       ry="70.910004" />
    <rect
       x="325.82001"
       y="483.54828"
       width="410"
       height="218.435"
       rx="57.889999"
       fill="#403363"
       id="rect26"
       style="stroke-width:1"
       ry="57.889999" />
    <g
       id="g57"
       transform="matrix(0.7967334,0,0,0.78686306,72.640335,69.637713)"
       style="stroke-width:1.26297">
      <path
         id="polyline41"
         style="fill:none;stroke:#c98615;stroke-width:30.402;stroke-miterlimit:10"
         transform="matrix(0.75,0,0,0.74553235,132.70624,164.68509)"
         d="M 235.12147,590.36384 387.04,741.32 l 195.48,23.95 214.52,-197.79 148.39,92.3"
         sodipodi:nodetypes="ccccc" />
      <ellipse
         cx="422.98624"
         cy="717.36316"
         fill="#ff841f"
         stroke="#8a3600"
         stroke-miterlimit="10"
         stroke-width="12.6297"
         id="circle43"
         rx="24.138998"
         ry="24.001163" />
      <ellipse
         cx="569.59625"
         cy="735.21863"
         fill="#ff841f"
         stroke="#8a3600"
         stroke-miterlimit="10"
         stroke-width="12.6297"
         id="circle44"
         rx="24.138998"
         ry="24.001163" />
      <ellipse
         cx="730.48627"
         cy="587.75977"
         fill="#ff841f"
         stroke="#8a3600"
         stroke-miterlimit="10"
         stroke-width="12.6297"
         id="circle45"
         rx="24.138998"
         ry="24.001163" />
    </g>
    <path
       id="path50"
       d="m 360.24187,206.47369 c -35.40736,4.02752 -62.75196,33.89048 -62.75196,70.41016 V 404.14362 H 764.15007 V 276.88385 c 0,-36.51968 -27.3446,-66.38264 -62.75195,-70.41016 z"
       style="display:inline;isolation:isolate;fill:#463075;fill-opacity:1" />
    <g
       id="g56"
       transform="matrix(1.2395176,0,0,1.2395176,-438.83343,180.28588)"
       style="stroke-width:0.806765">
      <g
         id="g55"
         transform="translate(5.2758193,6.3309831)"
         style="stroke-width:0.806765">
        <path
           d="m 623.19668,153.36 q -8.06,-7.9 -8,-21.21 V 84.270008 q 0,-13.16 8,-21 8,-7.84 21.36,-7.83 13.44,0 21.5,7.83 8.06,7.83 8.06,21 v 1.62 a 1.78,1.78 0 0 1 -1.78,1.78 l -17.29,0.74 c -1.18,0 -1.77,-0.54 -1.77,-1.63 v -3.84 a 10.05,10.05 0 0 0 -2.37,-6.95 8.07,8.07 0 0 0 -6.35,-2.66 7.92,7.92 0 0 0 -6.21,2.66 10,10 0 0 0 -2.36,6.95 V 133.94 a 9.75,9.75 0 0 0 2.36,6.87 8,8 0 0 0 6.21,2.59 8.15,8.15 0 0 0 6.35,-2.59 9.76,9.76 0 0 0 2.37,-6.87 v -4 a 1.78,1.78 0 0 1 1.77,-1.78 l 17.29,0.74 a 1.74,1.74 0 0 1 1.26,0.52 1.7,1.7 0 0 1 0.52,1.26 v 1.48 q 0,13.31 -8.13,21.21 -8.13,7.9 -21.43,7.91 -13.3,-0.01 -21.36,-7.92 z"
           fill="#d6bfff"
           id="path51"
           style="fill:#0e0a17;fill-opacity:1;stroke-width:0.806765" />
        <path
           d="m 720.74104,57.160008 a 1.68,1.68 0 0 1 1.25,-0.52 h 17.33 a 1.78,1.78 0 0 1 1.77,1.77 V 158.33 a 1.78,1.78 0 0 1 -1.77,1.77 h -17.3 a 1.78,1.78 0 0 1 -1.77,-1.77 v -40.36 a 0.65,0.65 0 0 0 -0.74,-0.74 h -14.81 a 0.65,0.65 0 0 0 -0.74,0.74 v 40.35 a 1.76,1.76 0 0 1 -1.77,1.77 h -17.29 a 1.78,1.78 0 0 1 -1.78,-1.77 V 58.400008 a 1.78,1.78 0 0 1 1.78,-1.77 h 17.29 a 1.76,1.76 0 0 1 1.77,1.77 v 40.2 a 0.65,0.65 0 0 0 0.74,0.739996 h 14.78 a 0.65,0.65 0 0 0 0.74,-0.739996 v -40.2 a 1.68,1.68 0 0 1 0.52,-1.24 z"
           fill="#d6bfff"
           id="path52"
           style="fill:#0e0a17;fill-opacity:1;stroke-width:0.806765" />
        <path
           d="m 795.43,158.46 -2.36,-14.19 c 0,-0.49 -0.3,-0.73 -0.89,-0.73 h -18.77 c -0.59,0 -0.89,0.24 -0.89,0.73 l -2.36,14.19 a 1.67,1.67 0 0 1 -1.92,1.63 h -17.3 q -1.92,0 -1.47,-1.92 l 21.72,-99.919992 a 1.77,1.77 0 0 1 1.92,-1.62 h 20 a 1.77,1.77 0 0 1 1.92,1.62 l 21.54,99.909992 0.14,0.59 c 0,0.89 -0.54,1.33 -1.62,1.33 h -17.74 a 1.67,1.67 0 0 1 -1.92,-1.62 z m -19.36,-31 h 13.3 c 0.49,0 0.69,-0.25 0.59,-0.74 l -6.94,-40.349992 q -0.15,-0.45 -0.45,-0.45 c -0.2,0 -0.34,0.15 -0.44,0.45 L 775.48,126.72 c 0,0.44 0.19,0.71 0.59,0.71 z"
           fill="#d6bfff"
           id="path53"
           style="fill:#0e0a17;fill-opacity:1;stroke-width:0.806765" />
        <path
           d="m 867.93,57.160008 a 1.68,1.68 0 0 1 1.25,-0.52 h 17.15 a 1.78,1.78 0 0 1 1.77,1.77 V 158.33 a 1.78,1.78 0 0 1 -1.77,1.77 h -19.51 a 1.84,1.84 0 0 1 -1.92,-1.48 l -18.33,-57.2 c -0.1,-0.29 -0.27,-0.42 -0.52,-0.37 -0.25,0.05 -0.37,0.22 -0.37,0.52 l 0.15,56.76 a 1.78,1.78 0 0 1 -1.77,1.77 h -17.15 a 1.78,1.78 0 0 1 -1.77,-1.77 V 58.400008 a 1.78,1.78 0 0 1 1.77,-1.77 h 19.36 a 1.86,1.86 0 0 1 1.93,1.48 L 866.67,115.31 c 0.1,0.29 0.27,0.42 0.52,0.37 a 0.47,0.47 0 0 0 0.37,-0.52 l -0.15,-56.759992 a 1.68,1.68 0 0 1 0.52,-1.24 z"
           fill="#d6bfff"
           id="path54"
           style="fill:#0e0a17;fill-opacity:1;stroke-width:0.806765" />
        <path
           d="m 954.82,74.000008 a 1.71,1.71 0 0 1 -1.25,0.51 h -30.88 a 0.65,0.65 0 0 0 -0.74,0.74 v 23.35 a 0.65,0.65 0 0 0 0.74,0.739996 h 17.73 A 1.78,1.78 0 0 1 942.2,101.12 v 14.33 a 1.78,1.78 0 0 1 -1.78,1.78 h -17.73 a 0.65,0.65 0 0 0 -0.74,0.74 v 23.5 a 0.65,0.65 0 0 0 0.74,0.74 h 30.89 a 1.76,1.76 0 0 1 1.77,1.77 v 14.34 a 1.78,1.78 0 0 1 -1.77,1.77 h -50.7 a 1.76,1.76 0 0 1 -1.77,-1.77 V 58.400008 a 1.76,1.76 0 0 1 1.77,-1.77 h 50.7 a 1.78,1.78 0 0 1 1.77,1.77 v 14.34 a 1.71,1.71 0 0 1 -0.53,1.26 z"
           fill="#d6bfff"
           id="path55"
           style="fill:#0e0a17;fill-opacity:1;stroke:none;stroke-width:0.806765" />
      </g>
      <g
         id="g51"
         style="isolation:isolate;stroke-width:0.806765">
        <path
           d="m 616.19668,147.36 q -8.06,-7.9 -8,-21.21 V 78.27 q 0,-13.16 8,-21 8,-7.84 21.36,-7.83 13.44,0 21.5,7.83 8.06,7.83 8.06,21 v 1.62 a 1.78,1.78 0 0 1 -1.78,1.78 l -17.29,0.74 c -1.18,0 -1.77,-0.54 -1.77,-1.63 v -3.84 a 10.05,10.05 0 0 0 -2.37,-6.95 8.07,8.07 0 0 0 -6.35,-2.66 7.92,7.92 0 0 0 -6.21,2.66 10,10 0 0 0 -2.36,6.95 v 51 a 9.75,9.75 0 0 0 2.36,6.87 8,8 0 0 0 6.21,2.59 8.15,8.15 0 0 0 6.35,-2.59 9.76,9.76 0 0 0 2.37,-6.87 v -4 a 1.78,1.78 0 0 1 1.77,-1.78 l 17.29,0.74 a 1.74,1.74 0 0 1 1.26,0.52 1.7,1.7 0 0 1 0.52,1.26 v 1.48 q 0,13.31 -8.13,21.21 -8.13,7.9 -21.43,7.91 -13.3,-0.01 -21.36,-7.92 z"
           fill="#d6bfff"
           id="path14"
           style="stroke-width:0.806765" />
        <path
           d="m 713.74104,51.16 a 1.68,1.68 0 0 1 1.25,-0.52 h 17.33 a 1.78,1.78 0 0 1 1.77,1.77 v 99.92 a 1.78,1.78 0 0 1 -1.77,1.77 h -17.3 a 1.78,1.78 0 0 1 -1.77,-1.77 v -40.36 a 0.65,0.65 0 0 0 -0.74,-0.74 h -14.81 a 0.65,0.65 0 0 0 -0.74,0.74 v 40.35 a 1.76,1.76 0 0 1 -1.77,1.77 h -17.29 a 1.78,1.78 0 0 1 -1.78,-1.77 V 52.4 a 1.78,1.78 0 0 1 1.78,-1.77 h 17.29 a 1.76,1.76 0 0 1 1.77,1.77 v 40.2 a 0.65,0.65 0 0 0 0.74,0.74 h 14.78 a 0.65,0.65 0 0 0 0.74,-0.74 V 52.4 a 1.68,1.68 0 0 1 0.52,-1.24 z"
           fill="#d6bfff"
           id="path17"
           style="stroke-width:0.806765" />
        <path
           d="m 788.43,152.46 -2.36,-14.19 c 0,-0.49 -0.3,-0.73 -0.89,-0.73 h -18.77 c -0.59,0 -0.89,0.24 -0.89,0.73 l -2.36,14.19 a 1.67,1.67 0 0 1 -1.92,1.63 h -17.3 q -1.92,0 -1.47,-1.92 l 21.72,-99.92 a 1.77,1.77 0 0 1 1.92,-1.62 h 20 a 1.77,1.77 0 0 1 1.92,1.62 l 21.54,99.91 0.14,0.59 c 0,0.89 -0.54,1.33 -1.62,1.33 h -17.74 a 1.67,1.67 0 0 1 -1.92,-1.62 z m -19.36,-31 h 13.3 c 0.49,0 0.69,-0.25 0.59,-0.74 l -6.94,-40.35 q -0.15,-0.45 -0.45,-0.45 c -0.2,0 -0.34,0.15 -0.44,0.45 l -6.65,40.35 c 0,0.44 0.19,0.71 0.59,0.71 z"
           fill="#d6bfff"
           id="path23"
           style="stroke-width:0.806765" />
        <path
           d="m 860.93,51.16 a 1.68,1.68 0 0 1 1.25,-0.52 h 17.15 a 1.78,1.78 0 0 1 1.77,1.77 v 99.92 a 1.78,1.78 0 0 1 -1.77,1.77 h -19.51 a 1.84,1.84 0 0 1 -1.92,-1.48 l -18.33,-57.2 c -0.1,-0.29 -0.27,-0.42 -0.52,-0.37 -0.25,0.05 -0.37,0.22 -0.37,0.52 l 0.15,56.76 a 1.78,1.78 0 0 1 -1.77,1.77 h -17.15 a 1.78,1.78 0 0 1 -1.77,-1.77 V 52.4 a 1.78,1.78 0 0 1 1.77,-1.77 h 19.36 a 1.86,1.86 0 0 1 1.93,1.48 l 18.47,57.2 c 0.1,0.29 0.27,0.42 0.52,0.37 a 0.47,0.47 0 0 0 0.37,-0.52 L 860.41,52.4 a 1.68,1.68 0 0 1 0.52,-1.24 z"
           fill="#d6bfff"
           id="path24"
           style="stroke-width:0.806765" />
        <path
           d="m 947.82,68 a 1.71,1.71 0 0 1 -1.25,0.51 h -30.88 a 0.65,0.65 0 0 0 -0.74,0.74 V 92.6 a 0.65,0.65 0 0 0 0.74,0.74 h 17.73 a 1.78,1.78 0 0 1 1.78,1.78 v 14.33 a 1.78,1.78 0 0 1 -1.78,1.78 h -17.73 a 0.65,0.65 0 0 0 -0.74,0.74 v 23.5 a 0.65,0.65 0 0 0 0.74,0.74 h 30.89 a 1.76,1.76 0 0 1 1.77,1.77 v 14.34 a 1.78,1.78 0 0 1 -1.77,1.77 h -50.7 a 1.76,1.76 0 0 1 -1.77,-1.77 V 52.4 a 1.76,1.76 0 0 1 1.77,-1.77 h 50.7 a 1.78,1.78 0 0 1 1.77,1.77 V 66.74 A 1.71,1.71 0 0 1 947.82,68 Z"
           fill="#d6bfff"
           id="path25"
           style="stroke-width:0.806765" />
      </g>
    </g>
    <path
       id="rect58"
       style="isolation:isolate;fill:#1e1236;fill-opacity:1;stroke-width:1"
       d="m 297.48991,463.9107 v 193.02539 c 0,39.28415 31.62602,70.91016 70.91016,70.91016 h 324.83984 c 39.28415,0 70.91016,-31.62601 70.91016,-70.91016 V 463.9107 Z m 86.22071,19.63672 h 294.21875 c 32.07106,0 57.89062,25.81957 57.89062,57.89063 v 102.65429 c 0,32.07106 -25.81956,57.89063 -57.89062,57.89063 H 383.71062 c -32.07106,0 -57.89063,-25.81957 -57.89063,-57.89063 V 541.43805 c 0,-32.07106 25.81957,-57.89063 57.89063,-57.89063 z"
       inkscape:label="WindowMask" />
    <ellipse
       cx="280.19193"
       cy="470.36096"
       fill="#755bb3"
       stroke="#423365"
       stroke-miterlimit="10"
       stroke-width="15"
       id="ellipse59"
       rx="39.418392"
       ry="37.411999"
       style="display:inline" />
    <ellipse
       cx="781.44806"
       cy="470.36096"
       fill="#c98615"
       stroke="#5a3d0b"
       stroke-miterlimit="10"
       stroke-width="15"
       id="ellipse61"
       rx="39.418392"
       ry="37.411999" />
  </g>
</svg>
