<?xml version="1.0" encoding="UTF-8" standalone="no"?>
<svg
   viewBox="0 0 1080 1080"
   version="1.1"
   id="svg49"
   sodipodi:docname="cam-hytale-ane-logo-v2.svg"
   width="1080"
   height="1080"
   inkscape:version="1.4 (86a8ad7, 2024-10-11)"
   inkscape:export-filename="cam-hytale-ane-logo-v2_128.png"
   inkscape:export-xdpi="11.377778"
   inkscape:export-ydpi="11.377778"
   xmlns:inkscape="http://www.inkscape.org/namespaces/inkscape"
   xmlns:sodipodi="http://sodipodi.sourceforge.net/DTD/sodipodi-0.dtd"
   xmlns="http://www.w3.org/2000/svg"
   xmlns:svg="http://www.w3.org/2000/svg">
  <defs
     id="defs49" />
  <sodipodi:namedview
     id="namedview49"
     pagecolor="#ffffff"
     bordercolor="#000000"
     borderopacity="0.25"
     inkscape:showpageshadow="2"
     inkscape:pageopacity="0.0"
     inkscape:pagecheckerboard="true"
     inkscape:deskcolor="#d1d1d1"
     inkscape:zoom="0.47386006"
     inkscape:cx="681.63584"
     inkscape:cy="429.45168"
     inkscape:window-width="1920"
     inkscape:window-height="1129"
     inkscape:window-x="-8"
     inkscape:window-y="-8"
     inkscape:window-maximized="1"
     inkscape:current-layer="svg49" />
  <g
     style="isolation:isolate"
     id="g49"
     transform="translate(9.1800079,73.089997)">
    <g
       id="Layer_1"
       data-name="Layer 1">
      <rect
         x="64.160004"
         y="0.5"
         width="933.32001"
         height="933.32001"
         rx="70.910004"
         fill="#1e1236"
         id="rect1" />
      <path
         d="m 135.84,0.5 h 790 a 71.67,71.67 0 0 1 71.67,71.67 v 126 H 64.16 v -126 A 71.67,71.67 0 0 1 135.84,0.5 Z"
         fill="#463075"
         stroke="#463075"
         stroke-miterlimit="10"
         id="path1" />
      <g
         opacity="0.8"
         style="mix-blend-mode:multiply"
         id="g13">
        <path
           d="m 138.56,226.2 q -8.06,-7.9 -8.05,-21.21 v -47.88 q 0,-13.16 8.05,-21 8.05,-7.84 21.36,-7.83 13.44,0 21.5,7.83 8.06,7.83 8.06,21 v 1.62 a 1.78,1.78 0 0 1 -1.78,1.78 l -17.29,0.74 c -1.18,0 -1.77,-0.54 -1.77,-1.63 v -3.84 a 10.05,10.05 0 0 0 -2.37,-6.95 8.07,8.07 0 0 0 -6.35,-2.66 7.92,7.92 0 0 0 -6.21,2.66 10,10 0 0 0 -2.36,6.95 v 51 a 9.75,9.75 0 0 0 2.36,6.87 8,8 0 0 0 6.21,2.59 8.15,8.15 0 0 0 6.35,-2.59 9.76,9.76 0 0 0 2.37,-6.87 v -4 a 1.78,1.78 0 0 1 1.77,-1.78 l 17.29,0.74 a 1.74,1.74 0 0 1 1.26,0.52 1.7,1.7 0 0 1 0.52,1.26 V 205 q 0,13.31 -8.13,21.21 -8.13,7.9 -21.43,7.91 -13.3,-0.01 -21.36,-7.92 z"
           transform="translate(-9.18,-72.84)"
           id="path2" />
        <path
           d="m 247.56,162.58 q 7.83,6.79 7.84,17.88 v 50.7 a 1.78,1.78 0 0 1 -1.78,1.77 h -17.29 a 1.76,1.76 0 0 1 -1.77,-1.77 v -3.26 a 0.6,0.6 0 0 0 -0.3,-0.59 c -0.2,-0.09 -0.4,0 -0.59,0.3 q -4.87,6.21 -15.08,6.5 a 24,24 0 0 1 -14.85,-4.73 q -6.28,-4.73 -6.28,-18 0,-13.74 7.61,-18.92 7.61,-5.18 22,-5.17 h 6.8 a 0.66,0.66 0 0 0 0.74,-0.74 v -3.7 a 9.93,9.93 0 0 0 -2.15,-6.57 6.74,6.74 0 0 0 -5.39,-2.59 6,6 0 0 0 -4.21,1.55 7.22,7.22 0 0 0 -2.15,4.36 1.72,1.72 0 0 1 -1.92,1.78 L 201,181.2 a 1.56,1.56 0 0 1 -1.77,-1.77 q 0.74,-10.8 8.43,-17.22 7.69,-6.42 19.51,-6.43 12.56,0 20.39,6.8 z m -15.74,53.13 a 7.61,7.61 0 0 0 2.74,-6.13 v -7 a 0.66,0.66 0 0 0 -0.74,-0.74 h -6.06 a 9,9 0 0 0 -6.43,2.29 8.19,8.19 0 0 0 -2.44,6.28 7.76,7.76 0 0 0 1.85,5.62 6.55,6.55 0 0 0 4.95,1.92 9.29,9.29 0 0 0 6.13,-2.24 z"
           transform="translate(-9.18,-72.84)"
           id="path3" />
        <path
           d="m 349.69,162.58 q 5,6.79 5,19.06 v 49.52 a 1.78,1.78 0 0 1 -1.78,1.77 h -17.26 a 1.76,1.76 0 0 1 -1.77,-1.77 V 183 a 11.48,11.48 0 0 0 -1.78,-6.87 5.55,5.55 0 0 0 -4.73,-2.44 6.05,6.05 0 0 0 -5.1,2.44 11.2,11.2 0 0 0 -1.84,6.87 v 48.19 a 1.78,1.78 0 0 1 -1.78,1.77 h -17.14 a 1.76,1.76 0 0 1 -1.77,-1.77 V 183 a 11.55,11.55 0 0 0 -1.74,-6.9 5.55,5.55 0 0 0 -4.73,-2.44 6,6 0 0 0 -5.1,2.44 11.2,11.2 0 0 0 -1.84,6.87 v 48.19 a 1.78,1.78 0 0 1 -1.78,1.77 h -17.33 a 1.76,1.76 0 0 1 -1.77,-1.77 v -72.43 a 1.76,1.76 0 0 1 1.77,-1.77 h 17.29 a 1.78,1.78 0 0 1 1.78,1.77 v 1.92 a 0.6,0.6 0 0 0 0.29,0.6 0.48,0.48 0 0 0 0.59,-0.15 16.61,16.61 0 0 1 6.51,-4.14 21.39,21.39 0 0 1 6.79,-1.18 q 11.53,0 16.56,9.16 l 0.29,0.15 c 0.3,0 0.64,-0.3 1,-0.89 a 16.93,16.93 0 0 1 7.46,-6.58 22.41,22.41 0 0 1 8.8,-1.84 q 10.09,0 15.11,6.8 z"
           transform="translate(-9.18,-72.84)"
           id="path4" />
        <path
           d="m 433.42,130 a 1.68,1.68 0 0 1 1.25,-0.52 H 452 a 1.78,1.78 0 0 1 1.77,1.77 v 99.92 a 1.78,1.78 0 0 1 -1.77,1.77 h -17.3 a 1.78,1.78 0 0 1 -1.77,-1.77 v -40.36 a 0.65,0.65 0 0 0 -0.74,-0.74 h -14.81 a 0.65,0.65 0 0 0 -0.74,0.74 v 40.35 a 1.76,1.76 0 0 1 -1.77,1.77 h -17.29 a 1.78,1.78 0 0 1 -1.78,-1.77 v -99.92 a 1.78,1.78 0 0 1 1.78,-1.77 h 17.29 a 1.76,1.76 0 0 1 1.77,1.77 v 40.2 a 0.65,0.65 0 0 0 0.74,0.74 h 14.78 a 0.65,0.65 0 0 0 0.74,-0.74 v -40.2 a 1.68,1.68 0 0 1 0.52,-1.24 z"
           transform="translate(-9.18,-72.84)"
           id="path5" />
        <path
           d="m 465.27,261.82 a 2.44,2.44 0 0 1 -0.3,-1.25 V 247 c 0,-1.18 0.45,-1.77 1.33,-1.77 q 7.68,-0.15 10.94,-2.44 3.26,-2.29 3.7,-9.39 l -0.15,-0.88 -18.63,-73.76 v -0.59 c 0,-0.88 0.54,-1.33 1.63,-1.33 h 18.62 c 1.19,0 1.83,0.54 1.92,1.63 l 6.8,43.89 q 0.15,0.6 0.45,0.6 c 0.19,0 0.34,-0.2 0.44,-0.6 l 6.5,-43.89 a 1.67,1.67 0 0 1 1.92,-1.63 l 18.63,0.3 q 2.07,0 1.62,1.92 l -19.51,76.71 q -3,10.78 -6.28,16.18 a 19.31,19.31 0 0 1 -9.75,7.91 q -6.43,2.51 -18.55,2.51 h -0.74 c -0.2,-0.03 -0.4,-0.2 -0.59,-0.55 z"
           transform="translate(-9.18,-72.84)"
           id="path6" />
        <path
           d="m 562.45,171.07 a 1.71,1.71 0 0 1 -1.26,0.52 h -8.28 a 0.66,0.66 0 0 0 -0.74,0.74 v 35.18 q 0,4.29 1.63,5.91 a 6.17,6.17 0 0 0 4.88,1.48 h 1 a 1.76,1.76 0 0 1 1.77,1.77 v 14.49 a 1.76,1.76 0 0 1 -1.77,1.77 h -5.88 q -10.78,0 -16.26,-3.62 -5.48,-3.62 -5.47,-13.82 v -43.16 a 0.65,0.65 0 0 0 -0.74,-0.74 h -4.87 a 1.78,1.78 0 0 1 -1.78,-1.77 v -11.09 a 1.78,1.78 0 0 1 1.78,-1.77 h 4.87 a 0.65,0.65 0 0 0 0.74,-0.74 v -16.41 a 1.78,1.78 0 0 1 1.78,-1.77 h 16.55 a 1.76,1.76 0 0 1 1.77,1.77 v 16.41 a 0.65,0.65 0 0 0 0.74,0.74 h 8.28 a 1.76,1.76 0 0 1 1.77,1.77 v 11.09 a 1.71,1.71 0 0 1 -0.51,1.25 z"
           transform="translate(-9.18,-72.84)"
           id="path7" />
        <path
           d="m 619.27,162.58 q 7.83,6.79 7.84,17.88 v 50.7 a 1.78,1.78 0 0 1 -1.78,1.77 H 608 a 1.76,1.76 0 0 1 -1.77,-1.77 v -3.26 a 0.6,0.6 0 0 0 -0.3,-0.59 c -0.2,-0.09 -0.4,0 -0.59,0.3 q -4.87,6.21 -15.08,6.5 a 24,24 0 0 1 -14.85,-4.73 q -6.29,-4.73 -6.28,-18 0,-13.74 7.61,-18.92 7.61,-5.18 22,-5.17 h 6.8 a 0.66,0.66 0 0 0 0.74,-0.74 v -3.7 a 9.93,9.93 0 0 0 -2.15,-6.57 6.74,6.74 0 0 0 -5.39,-2.59 6,6 0 0 0 -4.21,1.55 7.22,7.22 0 0 0 -2.15,4.36 1.72,1.72 0 0 1 -1.92,1.78 l -17.74,-0.15 a 1.56,1.56 0 0 1 -1.77,-1.77 q 0.73,-10.8 8.43,-17.22 7.7,-6.42 19.51,-6.43 12.54,-0.03 20.38,6.77 z m -15.74,53.13 a 7.61,7.61 0 0 0 2.74,-6.13 v -7 a 0.66,0.66 0 0 0 -0.74,-0.74 h -6.06 a 9,9 0 0 0 -6.43,2.29 8.19,8.19 0 0 0 -2.44,6.28 7.76,7.76 0 0 0 1.85,5.62 6.55,6.55 0 0 0 4.95,1.97 9.29,9.29 0 0 0 6.13,-2.29 z"
           transform="translate(-9.18,-72.84)"
           id="path8" />
        <path
           d="m 637.23,232.41 a 1.68,1.68 0 0 1 -0.52,-1.25 v -99.92 a 1.78,1.78 0 0 1 1.78,-1.77 h 17.29 a 1.78,1.78 0 0 1 1.77,1.77 v 99.92 a 1.78,1.78 0 0 1 -1.77,1.77 h -17.29 a 1.68,1.68 0 0 1 -1.26,-0.52 z"
           transform="translate(-9.18,-72.84)"
           id="path9" />
        <path
           d="m 722.51,200.93 a 1.7,1.7 0 0 1 -1.26,0.52 h -32.51 a 0.65,0.65 0 0 0 -0.74,0.74 v 5.47 a 9.37,9.37 0 0 0 2,6.13 6.29,6.29 0 0 0 5.1,2.44 6.07,6.07 0 0 0 4.58,-1.85 9.3,9.3 0 0 0 2.37,-4.66 1.85,1.85 0 0 1 1.92,-1.47 l 17,0.88 a 1.71,1.71 0 0 1 1.25,0.52 1.5,1.5 0 0 1 0.37,1.4 q -1,11.38 -7.9,17.22 -6.9,5.84 -19.59,5.84 -13.15,0 -20.54,-6.58 -7.39,-6.58 -7.39,-18.25 v -28.67 q 0,-11.24 7.46,-18 7.46,-6.76 20.47,-6.8 13,0 20.47,6.8 7.47,6.8 7.47,18 v 19.06 a 1.72,1.72 0 0 1 -0.53,1.26 z M 690,176 a 9,9 0 0 0 -2,6.06 v 5.76 a 0.65,0.65 0 0 0 0.74,0.74 h 12.71 a 0.66,0.66 0 0 0 0.74,-0.74 v -5.76 a 9.05,9.05 0 0 0 -2,-6.06 6.67,6.67 0 0 0 -10.2,0 z"
           transform="translate(-9.18,-72.84)"
           id="path10" />
        <path
           d="m 804.61,231.3 -2.36,-14.19 c 0,-0.49 -0.3,-0.73 -0.89,-0.73 h -18.77 c -0.59,0 -0.89,0.24 -0.89,0.73 l -2.36,14.19 a 1.67,1.67 0 0 1 -1.92,1.63 h -17.3 q -1.92,0 -1.47,-1.92 l 21.72,-99.92 a 1.77,1.77 0 0 1 1.92,-1.62 h 20 a 1.77,1.77 0 0 1 1.92,1.62 l 21.54,99.91 0.14,0.59 c 0,0.89 -0.54,1.33 -1.62,1.33 h -17.74 a 1.67,1.67 0 0 1 -1.92,-1.62 z m -19.36,-31 h 13.3 c 0.49,0 0.69,-0.25 0.59,-0.74 l -6.94,-40.35 q -0.15,-0.45 -0.45,-0.45 c -0.2,0 -0.34,0.15 -0.44,0.45 l -6.65,40.35 c 0,0.44 0.19,0.71 0.59,0.71 z"
           transform="translate(-9.18,-72.84)"
           id="path11" />
        <path
           d="m 877.11,130 a 1.68,1.68 0 0 1 1.25,-0.52 h 17.15 a 1.78,1.78 0 0 1 1.77,1.77 v 99.92 a 1.78,1.78 0 0 1 -1.77,1.77 H 876 a 1.84,1.84 0 0 1 -1.92,-1.48 l -18.33,-57.2 c -0.1,-0.29 -0.27,-0.42 -0.52,-0.37 -0.25,0.05 -0.37,0.22 -0.37,0.52 l 0.15,56.76 a 1.78,1.78 0 0 1 -1.77,1.77 h -17.15 a 1.78,1.78 0 0 1 -1.77,-1.77 v -99.93 a 1.78,1.78 0 0 1 1.77,-1.77 h 19.36 a 1.86,1.86 0 0 1 1.93,1.48 l 18.47,57.2 c 0.1,0.29 0.27,0.42 0.52,0.37 a 0.47,0.47 0 0 0 0.37,-0.52 l -0.15,-56.76 a 1.68,1.68 0 0 1 0.52,-1.24 z"
           transform="translate(-9.18,-72.84)"
           id="path12" />
        <path
           d="m 964,146.84 a 1.71,1.71 0 0 1 -1.25,0.51 h -30.88 a 0.65,0.65 0 0 0 -0.74,0.74 v 23.35 a 0.65,0.65 0 0 0 0.74,0.74 h 17.73 a 1.78,1.78 0 0 1 1.78,1.78 v 14.33 a 1.78,1.78 0 0 1 -1.78,1.78 h -17.73 a 0.65,0.65 0 0 0 -0.74,0.74 v 23.5 a 0.65,0.65 0 0 0 0.74,0.74 h 30.89 a 1.76,1.76 0 0 1 1.77,1.77 v 14.34 a 1.78,1.78 0 0 1 -1.77,1.77 h -50.7 a 1.76,1.76 0 0 1 -1.77,-1.77 v -99.92 a 1.76,1.76 0 0 1 1.77,-1.77 h 50.7 a 1.78,1.78 0 0 1 1.77,1.77 v 14.34 a 1.71,1.71 0 0 1 -0.53,1.26 z"
           transform="translate(-9.18,-72.84)"
           id="path13" />
      </g>
      <path
         d="m 131.56,220.2 q -8.06,-7.9 -8,-21.21 v -47.88 q 0,-13.16 8,-21 8,-7.84 21.36,-7.83 13.44,0 21.5,7.83 8.06,7.83 8.06,21 v 1.62 a 1.78,1.78 0 0 1 -1.78,1.78 l -17.29,0.74 c -1.18,0 -1.77,-0.54 -1.77,-1.63 v -3.84 a 10.05,10.05 0 0 0 -2.37,-6.95 8.07,8.07 0 0 0 -6.35,-2.66 7.92,7.92 0 0 0 -6.21,2.66 10,10 0 0 0 -2.36,6.95 v 51 a 9.75,9.75 0 0 0 2.36,6.87 8,8 0 0 0 6.21,2.59 8.15,8.15 0 0 0 6.35,-2.59 9.76,9.76 0 0 0 2.37,-6.87 v -4 a 1.78,1.78 0 0 1 1.77,-1.78 l 17.29,0.74 a 1.74,1.74 0 0 1 1.26,0.52 1.7,1.7 0 0 1 0.52,1.26 V 199 q 0,13.31 -8.13,21.21 -8.13,7.9 -21.43,7.91 -13.3,-0.01 -21.36,-7.92 z"
         transform="translate(-9.18,-72.84)"
         fill="#d6bfff"
         id="path14" />
      <path
         d="m 240.56,156.58 q 7.83,6.79 7.84,17.88 v 50.7 a 1.78,1.78 0 0 1 -1.78,1.77 h -17.29 a 1.76,1.76 0 0 1 -1.77,-1.77 v -3.26 a 0.6,0.6 0 0 0 -0.3,-0.59 c -0.2,-0.09 -0.4,0 -0.59,0.3 q -4.87,6.21 -15.08,6.5 a 24,24 0 0 1 -14.85,-4.73 q -6.28,-4.73 -6.28,-18 0,-13.74 7.61,-18.92 7.61,-5.18 22,-5.17 h 6.8 a 0.66,0.66 0 0 0 0.74,-0.74 v -3.7 a 9.93,9.93 0 0 0 -2.15,-6.57 6.74,6.74 0 0 0 -5.39,-2.59 6,6 0 0 0 -4.21,1.55 7.22,7.22 0 0 0 -2.15,4.36 1.72,1.72 0 0 1 -1.92,1.78 L 194,175.2 a 1.56,1.56 0 0 1 -1.77,-1.77 q 0.74,-10.8 8.43,-17.22 7.69,-6.42 19.51,-6.43 12.56,0 20.39,6.8 z m -15.74,53.13 a 7.61,7.61 0 0 0 2.74,-6.13 v -7 a 0.66,0.66 0 0 0 -0.74,-0.74 h -6.06 a 9,9 0 0 0 -6.43,2.29 8.19,8.19 0 0 0 -2.44,6.28 7.76,7.76 0 0 0 1.85,5.62 6.55,6.55 0 0 0 4.95,1.92 9.29,9.29 0 0 0 6.13,-2.24 z"
         transform="translate(-9.18,-72.84)"
         fill="#d6bfff"
         id="path15" />
      <path
         d="m 342.69,156.58 q 5,6.79 5,19.06 v 49.52 a 1.78,1.78 0 0 1 -1.78,1.77 h -17.26 a 1.76,1.76 0 0 1 -1.77,-1.77 V 177 a 11.48,11.48 0 0 0 -1.78,-6.87 5.55,5.55 0 0 0 -4.73,-2.44 6.05,6.05 0 0 0 -5.1,2.44 11.2,11.2 0 0 0 -1.84,6.87 v 48.19 a 1.78,1.78 0 0 1 -1.78,1.77 h -17.14 a 1.76,1.76 0 0 1 -1.77,-1.77 V 177 a 11.55,11.55 0 0 0 -1.74,-6.9 5.55,5.55 0 0 0 -4.73,-2.44 6,6 0 0 0 -5.1,2.44 11.2,11.2 0 0 0 -1.84,6.87 v 48.19 a 1.78,1.78 0 0 1 -1.78,1.77 h -17.33 a 1.76,1.76 0 0 1 -1.77,-1.77 v -72.43 a 1.76,1.76 0 0 1 1.77,-1.77 h 17.29 a 1.78,1.78 0 0 1 1.78,1.77 v 1.92 a 0.6,0.6 0 0 0 0.29,0.6 0.48,0.48 0 0 0 0.59,-0.15 16.61,16.61 0 0 1 6.51,-4.14 21.39,21.39 0 0 1 6.79,-1.18 q 11.53,0 16.56,9.16 l 0.29,0.15 c 0.3,0 0.64,-0.3 1,-0.89 a 16.93,16.93 0 0 1 7.46,-6.58 22.41,22.41 0 0 1 8.8,-1.84 q 10.09,0 15.11,6.8 z"
         transform="translate(-9.18,-72.84)"
         fill="#d6bfff"
         id="path16" />
      <path
         d="m 426.42,124 a 1.68,1.68 0 0 1 1.25,-0.52 H 445 a 1.78,1.78 0 0 1 1.77,1.77 v 99.92 a 1.78,1.78 0 0 1 -1.77,1.77 h -17.3 a 1.78,1.78 0 0 1 -1.77,-1.77 v -40.36 a 0.65,0.65 0 0 0 -0.74,-0.74 h -14.81 a 0.65,0.65 0 0 0 -0.74,0.74 v 40.35 a 1.76,1.76 0 0 1 -1.77,1.77 h -17.29 a 1.78,1.78 0 0 1 -1.78,-1.77 v -99.92 a 1.78,1.78 0 0 1 1.78,-1.77 h 17.29 a 1.76,1.76 0 0 1 1.77,1.77 v 40.2 a 0.65,0.65 0 0 0 0.74,0.74 h 14.78 a 0.65,0.65 0 0 0 0.74,-0.74 v -40.2 a 1.68,1.68 0 0 1 0.52,-1.24 z"
         transform="translate(-9.18,-72.84)"
         fill="#d6bfff"
         id="path17" />
      <path
         d="m 458.27,255.82 a 2.44,2.44 0 0 1 -0.3,-1.25 V 241 c 0,-1.18 0.45,-1.77 1.33,-1.77 q 7.68,-0.15 10.94,-2.44 3.26,-2.29 3.7,-9.39 l -0.15,-0.88 -18.63,-73.76 v -0.59 c 0,-0.88 0.54,-1.33 1.63,-1.33 h 18.62 c 1.19,0 1.83,0.54 1.92,1.63 l 6.8,43.89 q 0.15,0.6 0.45,0.6 c 0.19,0 0.34,-0.2 0.44,-0.6 l 6.5,-43.89 a 1.67,1.67 0 0 1 1.92,-1.63 l 18.63,0.3 q 2.07,0 1.62,1.92 l -19.51,76.71 q -3,10.78 -6.28,16.18 a 19.31,19.31 0 0 1 -9.75,7.91 q -6.43,2.5 -18.55,2.51 h -0.74 c -0.2,-0.03 -0.4,-0.2 -0.59,-0.55 z"
         transform="translate(-9.18,-72.84)"
         fill="#d6bfff"
         id="path18" />
      <path
         d="m 555.45,165.07 a 1.71,1.71 0 0 1 -1.26,0.52 h -8.28 a 0.66,0.66 0 0 0 -0.74,0.74 v 35.18 q 0,4.29 1.63,5.91 a 6.17,6.17 0 0 0 4.88,1.48 h 1 a 1.76,1.76 0 0 1 1.77,1.77 v 14.49 a 1.76,1.76 0 0 1 -1.77,1.77 h -5.88 q -10.78,0 -16.26,-3.62 -5.48,-3.62 -5.47,-13.82 v -43.16 a 0.65,0.65 0 0 0 -0.74,-0.74 h -4.87 a 1.78,1.78 0 0 1 -1.78,-1.77 v -11.09 a 1.78,1.78 0 0 1 1.78,-1.77 h 4.87 a 0.65,0.65 0 0 0 0.74,-0.74 v -16.41 a 1.78,1.78 0 0 1 1.78,-1.77 h 16.55 a 1.76,1.76 0 0 1 1.77,1.77 v 16.41 a 0.65,0.65 0 0 0 0.74,0.74 h 8.28 a 1.76,1.76 0 0 1 1.77,1.77 v 11.09 a 1.71,1.71 0 0 1 -0.51,1.25 z"
         transform="translate(-9.18,-72.84)"
         fill="#d6bfff"
         id="path19" />
      <path
         d="m 612.27,156.58 q 7.83,6.79 7.84,17.88 v 50.7 a 1.78,1.78 0 0 1 -1.78,1.77 H 601 a 1.76,1.76 0 0 1 -1.77,-1.77 v -3.26 a 0.6,0.6 0 0 0 -0.3,-0.59 c -0.2,-0.09 -0.4,0 -0.59,0.3 q -4.87,6.21 -15.08,6.5 a 24,24 0 0 1 -14.85,-4.73 q -6.29,-4.73 -6.28,-18 0,-13.74 7.61,-18.92 7.61,-5.18 22,-5.17 h 6.8 a 0.66,0.66 0 0 0 0.74,-0.74 v -3.7 a 9.93,9.93 0 0 0 -2.15,-6.57 6.74,6.74 0 0 0 -5.39,-2.59 6,6 0 0 0 -4.21,1.55 7.22,7.22 0 0 0 -2.15,4.36 1.72,1.72 0 0 1 -1.92,1.78 l -17.74,-0.15 a 1.56,1.56 0 0 1 -1.77,-1.77 q 0.73,-10.8 8.43,-17.22 7.7,-6.42 19.51,-6.43 12.54,-0.03 20.38,6.77 z m -15.74,53.13 a 7.61,7.61 0 0 0 2.74,-6.13 v -7 a 0.66,0.66 0 0 0 -0.74,-0.74 h -6.06 a 9,9 0 0 0 -6.43,2.29 8.19,8.19 0 0 0 -2.44,6.28 7.76,7.76 0 0 0 1.85,5.62 6.55,6.55 0 0 0 4.95,1.97 9.29,9.29 0 0 0 6.13,-2.29 z"
         transform="translate(-9.18,-72.84)"
         fill="#d6bfff"
         id="path20" />
      <path
         d="m 630.23,226.41 a 1.68,1.68 0 0 1 -0.52,-1.25 v -99.92 a 1.78,1.78 0 0 1 1.78,-1.77 h 17.29 a 1.78,1.78 0 0 1 1.77,1.77 v 99.92 a 1.78,1.78 0 0 1 -1.77,1.77 h -17.29 a 1.68,1.68 0 0 1 -1.26,-0.52 z"
         transform="translate(-9.18,-72.84)"
         fill="#d6bfff"
         id="path21" />
      <path
         d="m 715.51,194.93 a 1.7,1.7 0 0 1 -1.26,0.52 h -32.51 a 0.65,0.65 0 0 0 -0.74,0.74 v 5.47 a 9.37,9.37 0 0 0 2,6.13 6.29,6.29 0 0 0 5.1,2.44 6.07,6.07 0 0 0 4.58,-1.85 9.3,9.3 0 0 0 2.37,-4.66 1.85,1.85 0 0 1 1.92,-1.47 l 17,0.88 a 1.71,1.71 0 0 1 1.25,0.52 1.5,1.5 0 0 1 0.37,1.4 q -1,11.38 -7.9,17.22 -6.9,5.84 -19.59,5.84 -13.15,0 -20.54,-6.58 -7.39,-6.58 -7.39,-18.25 v -28.67 q 0,-11.24 7.46,-18 7.46,-6.76 20.47,-6.8 13,0 20.47,6.8 7.47,6.8 7.47,18 v 19.06 a 1.72,1.72 0 0 1 -0.53,1.26 z M 683,170 a 9,9 0 0 0 -2,6.06 v 5.76 a 0.65,0.65 0 0 0 0.74,0.74 h 12.71 a 0.66,0.66 0 0 0 0.74,-0.74 v -5.76 a 9.05,9.05 0 0 0 -2,-6.06 6.67,6.67 0 0 0 -10.2,0 z"
         transform="translate(-9.18,-72.84)"
         fill="#d6bfff"
         id="path22" />
      <path
         d="m 797.61,225.3 -2.36,-14.19 c 0,-0.49 -0.3,-0.73 -0.89,-0.73 h -18.77 c -0.59,0 -0.89,0.24 -0.89,0.73 l -2.36,14.19 a 1.67,1.67 0 0 1 -1.92,1.63 h -17.3 q -1.92,0 -1.47,-1.92 l 21.72,-99.92 a 1.77,1.77 0 0 1 1.92,-1.62 h 20 a 1.77,1.77 0 0 1 1.92,1.62 l 21.54,99.91 0.14,0.59 c 0,0.89 -0.54,1.33 -1.62,1.33 h -17.74 a 1.67,1.67 0 0 1 -1.92,-1.62 z m -19.36,-31 h 13.3 c 0.49,0 0.69,-0.25 0.59,-0.74 l -6.94,-40.35 q -0.15,-0.45 -0.45,-0.45 c -0.2,0 -0.34,0.15 -0.44,0.45 l -6.65,40.35 c 0,0.44 0.19,0.71 0.59,0.71 z"
         transform="translate(-9.18,-72.84)"
         fill="#d6bfff"
         id="path23" />
      <path
         d="m 870.11,124 a 1.68,1.68 0 0 1 1.25,-0.52 h 17.15 a 1.78,1.78 0 0 1 1.77,1.77 v 99.92 a 1.78,1.78 0 0 1 -1.77,1.77 H 869 a 1.84,1.84 0 0 1 -1.92,-1.48 l -18.33,-57.2 c -0.1,-0.29 -0.27,-0.42 -0.52,-0.37 -0.25,0.05 -0.37,0.22 -0.37,0.52 l 0.15,56.76 a 1.78,1.78 0 0 1 -1.77,1.77 h -17.15 a 1.78,1.78 0 0 1 -1.77,-1.77 v -99.93 a 1.78,1.78 0 0 1 1.77,-1.77 h 19.36 a 1.86,1.86 0 0 1 1.93,1.48 l 18.47,57.2 c 0.1,0.29 0.27,0.42 0.52,0.37 a 0.47,0.47 0 0 0 0.37,-0.52 l -0.15,-56.76 a 1.68,1.68 0 0 1 0.52,-1.24 z"
         transform="translate(-9.18,-72.84)"
         fill="#d6bfff"
         id="path24" />
      <path
         d="m 957,140.84 a 1.71,1.71 0 0 1 -1.25,0.51 h -30.88 a 0.65,0.65 0 0 0 -0.74,0.74 v 23.35 a 0.65,0.65 0 0 0 0.74,0.74 h 17.73 a 1.78,1.78 0 0 1 1.78,1.78 v 14.33 a 1.78,1.78 0 0 1 -1.78,1.78 h -17.73 a 0.65,0.65 0 0 0 -0.74,0.74 v 23.5 a 0.65,0.65 0 0 0 0.74,0.74 h 30.89 a 1.76,1.76 0 0 1 1.77,1.77 v 14.34 a 1.78,1.78 0 0 1 -1.77,1.77 h -50.7 a 1.76,1.76 0 0 1 -1.77,-1.77 v -99.92 a 1.76,1.76 0 0 1 1.77,-1.77 h 50.7 a 1.78,1.78 0 0 1 1.77,1.77 v 14.34 a 1.71,1.71 0 0 1 -0.53,1.26 z"
         transform="translate(-9.18,-72.84)"
         fill="#d6bfff"
         id="path25" />
      <rect
         x="120.82"
         y="446.16"
         width="820"
         height="436.87"
         rx="57.889999"
         fill="#403363"
         id="rect26" />
      <g
         opacity="0.6"
         id="g37">
        <path
           d="M 950,883.06"
           transform="translate(-9.18,-72.84)"
           fill="none"
           stroke="#d4b4ff"
           stroke-miterlimit="10"
           stroke-width="4"
           id="path26" />
        <path
           d="M 130,883.06"
           transform="translate(-9.18,-72.84)"
           fill="none"
           stroke="#d4b4ff"
           stroke-miterlimit="10"
           stroke-width="4"
           id="path27" />
        <line
           x1="120.82"
           y1="737.40997"
           x2="940.82001"
           y2="737.40997"
           fill="none"
           stroke="#d4b4ff"
           stroke-miterlimit="10"
           stroke-width="4"
           id="line27" />
        <path
           d="M 950,737.44"
           transform="translate(-9.18,-72.84)"
           fill="none"
           stroke="#d4b4ff"
           stroke-miterlimit="10"
           stroke-width="4"
           id="path28" />
        <path
           d="M 130,737.44"
           transform="translate(-9.18,-72.84)"
           fill="none"
           stroke="#d4b4ff"
           stroke-miterlimit="10"
           stroke-width="4"
           id="path29" />
        <line
           x1="120.82"
           y1="591.78003"
           x2="940.82001"
           y2="591.78003"
           fill="none"
           stroke="#d4b4ff"
           stroke-miterlimit="10"
           stroke-width="4"
           id="line29" />
        <path
           d="M 950,591.81"
           transform="translate(-9.18,-72.84)"
           fill="none"
           stroke="#d4b4ff"
           stroke-miterlimit="10"
           stroke-width="4"
           id="path30" />
        <path
           d="M 130,591.81"
           transform="translate(-9.18,-72.84)"
           fill="none"
           stroke="#d4b4ff"
           stroke-miterlimit="10"
           stroke-width="4"
           id="path31" />
        <path
           d="M 813.33,955.87"
           transform="translate(-9.18,-72.84)"
           fill="none"
           stroke="#d4b4ff"
           stroke-miterlimit="10"
           stroke-width="4"
           id="path32" />
        <path
           d="M 813.33,519"
           transform="translate(-9.18,-72.84)"
           fill="none"
           stroke="#d4b4ff"
           stroke-miterlimit="10"
           stroke-width="4"
           id="path33" />
        <line
           x1="667.48999"
           y1="446.16"
           x2="667.48999"
           y2="883.03003"
           fill="none"
           stroke="#d4b4ff"
           stroke-miterlimit="10"
           stroke-width="4"
           id="line33" />
        <path
           d="M 540,955.87"
           transform="translate(-9.18,-72.84)"
           fill="none"
           stroke="#d4b4ff"
           stroke-miterlimit="10"
           stroke-width="4"
           id="path34" />
        <path
           d="M 540,519"
           transform="translate(-9.18,-72.84)"
           fill="none"
           stroke="#d4b4ff"
           stroke-miterlimit="10"
           stroke-width="4"
           id="path35" />
        <line
           x1="394.16"
           y1="446.16"
           x2="394.16"
           y2="883.03003"
           fill="none"
           stroke="#d4b4ff"
           stroke-miterlimit="10"
           stroke-width="4"
           id="line35" />
        <path
           d="M 266.67,955.87"
           transform="translate(-9.18,-72.84)"
           fill="none"
           stroke="#d4b4ff"
           stroke-miterlimit="10"
           stroke-width="4"
           id="path36" />
        <path
           d="M 266.67,519"
           transform="translate(-9.18,-72.84)"
           fill="none"
           stroke="#d4b4ff"
           stroke-miterlimit="10"
           stroke-width="4"
           id="path37" />
      </g>
      <path
         d="M 191.12,519 H 130 v 61.12 A 61.12,61.12 0 0 1 191.12,519 Z"
         transform="translate(-9.18,-72.84)"
         fill="#1e1236"
         id="path38" />
      <path
         d="m 130,894.75 v 61.12 h 61.12 A 61.12,61.12 0 0 1 130,894.75 Z"
         transform="translate(-9.18,-72.84)"
         fill="#1e1236"
         id="path39" />
      <path
         d="M 888.88,955.87 H 950 v -61.12 a 61.12,61.12 0 0 1 -61.12,61.12 z"
         transform="translate(-9.18,-72.84)"
         fill="#1e1236"
         id="path40" />
      <path
         d="M 888.88,519 A 61.12,61.12 0 0 1 950,580.12 V 519 Z"
         transform="translate(-9.18,-72.84)"
         fill="#1e1236"
         id="path41" />
      <polyline
         points="113.71 538.23 258.96 609.25 387.04 741.32 582.52 765.27 797.04 567.48 945.43 659.78"
         fill="none"
         stroke="#c98615"
         stroke-miterlimit="10"
         stroke-width="21"
         id="polyline41" />
      <circle
         cx="390.07001"
         cy="739.56"
         r="25.709999"
         fill="#ff841f"
         stroke="#8a3600"
         stroke-miterlimit="10"
         stroke-width="10"
         id="circle43" />
      <circle
         cx="586.37"
         cy="761.35999"
         r="25.709999"
         fill="#ff841f"
         stroke="#8a3600"
         stroke-miterlimit="10"
         stroke-width="10"
         id="circle44" />
      <circle
         cx="799.25"
         cy="568.03003"
         r="25.709999"
         fill="#ff841f"
         stroke="#8a3600"
         stroke-miterlimit="10"
         stroke-width="10"
         id="circle45" />
      <rect
         x="169.25999"
         y="266.41"
         width="113.3"
         height="113.3"
         rx="30.190001"
         fill="#755bb3"
         stroke="#423365"
         stroke-miterlimit="10"
         stroke-width="10"
         id="rect45" />
      <path
         d="m 198.73,400.05 10.57,-10.61 17.36,17.06 38.5,-38.35 10.64,10.61 -49.14,48.89 z"
         transform="translate(-9.18,-72.84)"
         fill="#1e1236"
         id="path45" />
      <rect
         x="356.45001"
         y="266.41"
         width="523.26001"
         height="113.3"
         rx="30.190001"
         fill="#755bb3"
         stroke="#423365"
         stroke-miterlimit="10"
         stroke-width="10"
         id="rect46" />
      <rect
         x="84.529999"
         y="488.38"
         width="22.07"
         height="203.50999"
         fill="#1e1236"
         id="rect47" />
      <rect
         x="98.760002"
         y="507.28"
         width="22.07"
         height="203.50999"
         fill="#1e1236"
         id="rect48" />
      <rect
         x="940.82001"
         y="542.32001"
         width="22.07"
         height="203.50999"
         fill="#1e1236"
         id="rect49" />
      <circle
         cx="257.48999"
         cy="615.84998"
         r="25.709999"
         fill="#ff841f"
         stroke="#8a3600"
         stroke-miterlimit="10"
         stroke-width="10"
         id="circle49" />
      <circle
         cx="64.160004"
         cy="323.06"
         r="56.66"
         fill="#755bb3"
         stroke="#423365"
         stroke-miterlimit="10"
         stroke-width="15"
         id="circle1" />
      <circle
         cx="64.160004"
         cy="323.06"
         r="36.360001"
         fill="#634e98"
         id="circle2" />
      <circle
         cx="997.47998"
         cy="323.06"
         r="56.66"
         fill="#c98615"
         stroke="#5a3d0b"
         stroke-miterlimit="10"
         stroke-width="15"
         id="circle3" />
      <circle
         cx="997.47998"
         cy="323.06"
         r="36.360001"
         fill="#a16c11"
         id="circle4" />
    </g>
  </g>
</svg>
